<svg width="20" height="20" viewBox="0 0 20 20" fill="none" xmlns="http://www.w3.org/2000/svg">
<path d="M7.78076 4.6665C7.85792 4.66725 7.93486 4.68457 8.00732 4.71729C8.0799 4.75007 8.14714 4.79834 8.20459 4.86084L8.21045 4.8667L12.646 9.52783C12.7631 9.6509 12.8335 9.82315 12.8335 10.0073C12.8334 10.1913 12.763 10.3628 12.646 10.4858L8.21045 15.147C8.09417 15.2692 7.9418 15.3325 7.78857 15.3325C7.67412 15.3324 7.55985 15.2978 7.46045 15.228C7.3605 15.1578 7.27903 15.0546 7.22998 14.9302C7.18095 14.8056 7.16758 14.6674 7.19287 14.5337C7.21817 14.4 7.28055 14.2806 7.36768 14.189L11.019 10.3521L11.3472 10.0073L11.019 9.6626L7.36768 5.82471L7.36084 5.81885C7.30162 5.75868 7.25309 5.68486 7.21924 5.60205C7.18543 5.51921 7.16726 5.42898 7.1665 5.3374C7.16579 5.2458 7.1828 5.15534 7.21533 5.07178C7.24789 4.98824 7.29464 4.91341 7.35303 4.85205C7.41142 4.79069 7.48018 4.7438 7.55322 4.7124C7.62611 4.68111 7.7036 4.6658 7.78076 4.6665Z" fill="#08283B" stroke="#08283B"/>
</svg>
