<svg width="200" height="200" viewBox="0 0 200 200" fill="none" xmlns="http://www.w3.org/2000/svg">
<path d="M153.185 77.7071C153.185 77.7071 135.3 93.4056 155.893 127.021C174.183 156.876 133.075 169.817 115.36 166.351C92.4132 161.862 79.2379 132.858 61.6893 142.049C44.1407 151.239 26.7559 109.594 52.282 94.2699C84.0354 75.2074 63.6565 64.1299 66.5084 50.1527C68.5553 40.1214 97.6828 24.612 113.388 42.3035C126.605 57.1907 133.086 51.8647 139.126 49.8773C147.838 47.0109 166.855 61.9206 153.185 77.7071Z" fill="#FFEFE6"/>
<path d="M102.546 95.3971L96.687 119.432C96.4694 120.323 96.4296 121.249 96.5699 122.155C96.7101 123.062 97.0276 123.932 97.5042 124.716C97.9808 125.5 98.6073 126.182 99.3477 126.724C100.088 127.266 100.928 127.656 101.819 127.874L130.961 134.978C131.711 143.205 138.519 143.813 141.205 144.095C141.232 144.097 141.258 144.089 141.28 144.074C141.302 144.059 141.318 144.038 141.326 144.012C141.334 143.987 141.334 143.96 141.325 143.935C141.316 143.91 141.299 143.889 141.277 143.874C139.348 142.699 138.772 139.475 138.644 136.851L140.807 137.378C141.698 137.596 142.624 137.636 143.53 137.495C144.437 137.355 145.307 137.038 146.091 136.561C146.875 136.084 147.558 135.458 148.099 134.718C148.641 133.977 149.032 133.137 149.249 132.246L155.108 108.211C155.326 107.32 155.365 106.394 155.225 105.488C155.085 104.581 154.768 103.711 154.291 102.927C153.814 102.143 153.188 101.461 152.447 100.919C151.707 100.377 150.867 99.9865 149.976 99.7694L110.988 90.2646C110.097 90.0471 109.171 90.0073 108.265 90.1475C107.358 90.2877 106.488 90.6052 105.704 91.0818C104.92 91.5585 104.238 92.1849 103.696 92.9253C103.154 93.6658 102.764 94.5057 102.546 95.3971Z" fill="#FFB38A"/>
<path d="M150.886 107.254L134.591 103.281C134.483 103.255 134.375 103.321 134.349 103.428L133.513 106.857C133.487 106.965 133.553 107.073 133.66 107.099L149.956 111.072C150.063 111.098 150.171 111.032 150.197 110.925L151.033 107.496C151.059 107.388 150.994 107.28 150.886 107.254Z" fill="#FDFDFD"/>
<path d="M148.56 116.798L104.408 106.035C104.301 106.009 104.193 106.074 104.166 106.182L103.331 109.611C103.304 109.718 103.37 109.826 103.477 109.852L147.629 120.616C147.736 120.642 147.845 120.577 147.871 120.469L148.707 117.04C148.733 116.933 148.667 116.825 148.56 116.798Z" fill="#FFCCB0"/>
<path d="M146.233 126.342L102.081 115.579C101.974 115.552 101.866 115.618 101.839 115.726L101.003 119.155C100.977 119.262 101.043 119.37 101.15 119.396L145.302 130.16C145.409 130.186 145.517 130.121 145.543 130.013L146.379 126.584C146.406 126.477 146.34 126.369 146.233 126.342Z" fill="#FFCCB0"/>
<path d="M118.954 66.5657L128.536 97.3357C128.892 98.4767 129.019 99.6766 128.911 100.867C128.802 102.057 128.461 103.214 127.905 104.273C127.349 105.331 126.591 106.269 125.672 107.034C124.754 107.799 123.694 108.375 122.553 108.73L85.2448 120.348C84.9429 131.105 76.1407 132.452 72.6714 133.038C72.637 133.042 72.602 133.035 72.5721 133.018C72.5422 133 72.519 132.973 72.5062 132.941C72.4934 132.908 72.4917 132.873 72.5015 132.839C72.5113 132.806 72.5319 132.777 72.5601 132.757C74.9718 131.07 75.4572 126.833 75.4101 123.41L72.6401 124.272C71.4991 124.628 70.2993 124.755 69.1091 124.647C67.9189 124.539 66.7617 124.197 65.7035 123.642C64.6454 123.086 63.7071 122.327 62.9423 121.409C62.1774 120.491 61.601 119.431 61.2459 118.29L51.6641 87.5196C51.3085 86.3785 51.1811 85.1786 51.2893 83.9883C51.3976 82.7981 51.7392 81.6408 52.2949 80.5826C52.8505 79.5244 53.6092 78.5861 54.5275 77.8212C55.4459 77.0564 56.506 76.4799 57.6472 76.1249L107.559 60.5826C108.7 60.2269 109.9 60.0996 111.091 60.2078C112.281 60.316 113.438 60.6577 114.496 61.2133C115.554 61.7689 116.493 62.5276 117.258 63.446C118.023 64.3644 118.599 65.4245 118.954 66.5657Z" fill="#FF7B33"/>
<path d="M83.7041 77.5864L56.9762 85.8986C56.8707 85.9314 56.8118 86.0435 56.8446 86.149L58.2461 90.6557C58.2789 90.7611 58.391 90.8201 58.4965 90.7873L85.2245 82.475C85.33 82.4422 85.3889 82.3301 85.3561 82.2246L83.9545 77.718C83.9217 77.6125 83.8096 77.5535 83.7041 77.5864Z" fill="#FDFDFD"/>
<path d="M117.434 80.4424L60.795 98.0802C60.6895 98.113 60.6306 98.2251 60.6635 98.3306L62.0665 102.836C62.0994 102.942 62.2115 103.001 62.317 102.968L118.956 85.3299C119.061 85.2971 119.12 85.185 119.087 85.0795L117.684 80.5739C117.651 80.4685 117.539 80.4096 117.434 80.4424Z" fill="#FFCCB0"/>
<path d="M121.233 92.724L64.5811 110.342C64.4757 110.375 64.4167 110.487 64.4495 110.593L65.8511 115.099C65.8839 115.205 65.996 115.264 66.1015 115.231L122.754 97.6126C122.859 97.5798 122.918 97.4677 122.885 97.3622L121.484 92.8556C121.451 92.7501 121.339 92.6912 121.233 92.724Z" fill="#FFCCB0"/>
</svg>
