<svg xmlns="http://www.w3.org/2000/svg" width="680" height="520" viewBox="0 0 680 520" style="background: white; font-family: system-ui, -apple-system, sans-serif;">
  <defs>
    <marker id="arrow" viewBox="0 0 10 10" refX="8" refY="5" markerWidth="6" markerHeight="6" orient="auto-start-reverse">
      <path d="M2 1L8 5L2 9" fill="none" stroke="#666" stroke-width="1.5" stroke-linecap="round" stroke-linejoin="round"/>
    </marker>
  </defs>
  <text x="340" y="30" text-anchor="middle" font-size="18" font-weight="500" fill="#333">CommunityBoard architecture</text>
  <rect x="40" y="60" width="600" height="70" rx="12" fill="#EEEDFE" stroke="#534AB7" stroke-width="0.5"/>
  <text x="340" y="85" text-anchor="middle" font-size="14" font-weight="500" fill="#3C3489">CI/CD pipeline</text>
  <text x="340" y="105" text-anchor="middle" font-size="12" fill="#534AB7">GitHub Actions: build → test → deploy on merge to main</text>
  <line x1="340" y1="130" x2="340" y2="160" stroke="#666" stroke-width="1.5" marker-end="url(#arrow)"/>
  <text x="355" y="150" text-anchor="start" font-size="12" fill="#666">SSH + Docker</text>
  <rect x="40" y="170" width="600" height="320" rx="16" fill="#E1F5EE" stroke="#0F6E56" stroke-width="0.5"/>
  <text x="60" y="195" font-size="14" font-weight="500" fill="#085041">AWS EC2 (eu-north-1)</text>
  <text x="60" y="215" font-size="12" fill="#0F6E56">16.16.98.17 • Ubuntu 22.04 • Docker Compose</text>
  <rect x="70" y="240" width="140" height="70" rx="8" fill="#E6F1FB" stroke="#185FA5" stroke-width="0.5"/>
  <text x="140" y="268" text-anchor="middle" font-size="14" font-weight="500" fill="#0C447C">Frontend</text>
  <text x="140" y="288" text-anchor="middle" font-size="12" fill="#185FA5">React • Nginx</text>
  <text x="140" y="328" text-anchor="middle" font-size="12" fill="#666">:3000</text>
  <rect x="270" y="240" width="140" height="70" rx="8" fill="#FAECE7" stroke="#993C1D" stroke-width="0.5"/>
  <text x="340" y="268" text-anchor="middle" font-size="14" font-weight="500" fill="#712B13">Backend</text>
  <text x="340" y="288" text-anchor="middle" font-size="12" fill="#993C1D">Spring Boot</text>
  <text x="340" y="328" text-anchor="middle" font-size="12" fill="#666">:8080</text>
  <line x1="210" y1="275" x2="268" y2="275" stroke="#666" stroke-width="1.5" marker-end="url(#arrow)"/>
  <text x="239" y="265" text-anchor="middle" font-size="12" fill="#666">API</text>
  <rect x="70" y="360" width="120" height="70" rx="8" fill="#FAEEDA" stroke="#854F0B" stroke-width="0.5"/>
  <text x="130" y="388" text-anchor="middle" font-size="14" font-weight="500" fill="#633806">PostgreSQL</text>
  <text x="130" y="408" text-anchor="middle" font-size="12" fill="#854F0B">Main DB</text>
  <text x="130" y="448" text-anchor="middle" font-size="12" fill="#666">:5433</text>
  <rect x="220" y="360" width="120" height="70" rx="8" fill="#FAEEDA" stroke="#854F0B" stroke-width="0.5"/>
  <text x="280" y="388" text-anchor="middle" font-size="14" font-weight="500" fill="#633806">PostgreSQL</text>
  <text x="280" y="408" text-anchor="middle" font-size="12" fill="#854F0B">Analytics</text>
  <text x="280" y="448" text-anchor="middle" font-size="12" fill="#666">:5434</text>
  <rect x="370" y="360" width="120" height="70" rx="8" fill="#FAEEDA" stroke="#854F0B" stroke-width="0.5"/>
  <text x="430" y="388" text-anchor="middle" font-size="14" font-weight="500" fill="#633806">PostgreSQL</text>
  <text x="430" y="408" text-anchor="middle" font-size="12" fill="#854F0B">Test DB</text>
  <text x="430" y="448" text-anchor="middle" font-size="12" fill="#666">:5435</text>
  <line x1="305" y1="310" x2="170" y2="358" stroke="#666" stroke-width="1.5" marker-end="url(#arrow)"/>
  <line x1="340" y1="310" x2="280" y2="358" stroke="#666" stroke-width="1.5" marker-end="url(#arrow)"/>
  <rect x="510" y="280" width="120" height="100" rx="8" fill="#EAF3DE" stroke="#3B6D11" stroke-width="0.5"/>
  <text x="570" y="310" text-anchor="middle" font-size="14" font-weight="500" fill="#27500A">Data Eng</text>
  <text x="570" y="330" text-anchor="middle" font-size="12" fill="#3B6D11">seed + ETL</text>
  <text x="570" y="350" text-anchor="middle" font-size="12" fill="#3B6D11">Python</text>
  <line x1="508" y1="350" x2="192" y2="380" stroke="#666" stroke-width="1.5" marker-end="url(#arrow)"/>
  <line x1="508" y1="370" x2="342" y2="390" stroke="#666" stroke-width="1.5" marker-end="url(#arrow)"/>
  <text x="140" y="235" text-anchor="middle" font-size="12" fill="#666">Users</text>
  <line x1="140" y1="218" x2="140" y2="238" stroke="#666" stroke-width="1.5" marker-start="url(#arrow)"/>
</svg>
